<svg width="66" height="75" viewBox="0 0 66 75" fill="none" xmlns="http://www.w3.org/2000/svg">
<path fill-rule="evenodd" clip-rule="evenodd" d="M61.0009 61.6737C60.7094 64.974 58.4137 67.7531 55.2279 68.6625L35.4063 74.3209C33.971 74.7306 32.4496 74.7306 31.0143 74.3209L11.1928 68.6625C8.0069 67.7531 5.71126 64.9739 5.41979 61.6736L0.8209 9.59858C0.407786 4.92073 4.09384 0.894821 8.78988 0.894821H57.6306C62.3267 0.894821 66.0128 4.92079 65.5996 9.59867C64.0667 26.956 62.5338 44.3168 61.0009 61.6737ZM61.3405 13.4962C61.7537 8.81834 58.0676 4.79234 53.3716 4.79234H13.0491C8.35297 4.79234 4.6669 8.81834 5.08009 13.4962L9.06937 58.6607C9.36081 61.9602 11.6555 64.7389 14.8404 65.649L31.0124 70.2699C32.4489 70.6804 33.9717 70.6804 35.4082 70.2699L51.5802 65.649C54.7651 64.7389 57.0598 61.9602 57.3512 58.6607L61.3405 13.4962ZM17.4411 47.8452C17.3199 45.6302 19.0833 43.7676 21.3017 43.7676H22.1753C23.7639 43.7676 25.0689 45.0225 25.131 46.61C25.1788 47.8327 25.9745 48.8998 27.1329 49.2944L30.6306 50.4859C32.3032 51.0557 34.1174 51.0557 35.79 50.4859L38.0124 49.7289C39.9487 49.0692 41.2981 47.3096 41.4329 45.2684C41.6258 42.3463 39.3077 39.87 36.3792 39.87H28.3357C26.2601 39.87 24.5486 38.2433 24.4432 36.1704C24.33 33.943 26.1055 32.075 28.3357 32.075H38.5668C40.6073 32.075 42.3024 30.5011 42.4536 28.4662C42.6215 26.2061 40.8331 24.28 38.5668 24.28H19.4693C17.4303 24.28 15.7358 22.7083 15.5828 20.6749C15.4126 18.4135 17.2016 16.4849 19.4693 16.4849H42.4466C47.0613 16.4849 50.7191 20.3786 50.431 24.9844L49.9874 32.075L48.9474 49.0711C48.7473 52.3405 46.5744 55.1576 43.4631 56.1815L35.7111 58.7326C34.0867 59.2671 32.3339 59.2671 30.7095 58.7326L21.808 55.8032C19.3937 55.0087 17.7132 52.8154 17.5743 50.2774L17.4411 47.8452Z" fill="#F7F7F7"/>
</svg>
