<svg width="66" height="75" viewBox="0 0 66 75" fill="none" xmlns="http://www.w3.org/2000/svg">
<path d="M8.84335 0.68425C4.1473 0.68425 0.461253 4.71017 0.874367 9.38801L5.47326 61.463C5.76472 64.7634 8.06037 67.5425 11.2463 68.452L31.0678 74.1103C32.5031 74.52 34.0244 74.52 35.4598 74.1103L55.2813 68.452C58.4672 67.5425 60.7628 64.7634 61.0543 61.4631C62.5872 44.1051 64.1202 26.7461 65.6532 9.38804C66.0663 4.71019 62.3802 0.68425 57.6842 0.68425H8.84335ZM5.1335 13.2856C4.72034 8.60775 8.4064 4.58177 13.1025 4.58177H53.4251C58.1211 4.58177 61.8072 8.60774 61.394 13.2856L57.4048 58.4522C57.1133 61.7526 54.8175 64.5318 51.6315 65.4411L35.4594 70.0569C34.0243 70.4665 32.5032 70.4665 31.0681 70.0569L14.896 65.4411C11.71 64.5318 9.41421 61.7526 9.12271 58.4522L5.1335 13.2856ZM26.1187 16.2743C21.9483 16.2743 18.4775 19.4781 18.1443 23.6352L17.5524 31.0203C17.1793 35.6757 20.8566 39.6595 25.5268 39.6595H36.5494C39.5908 39.6595 41.9838 42.257 41.735 45.2882C41.5371 47.6983 39.7049 49.6543 37.3129 50.0092L34.4449 50.4346C33.6618 50.5508 32.8658 50.5501 32.0829 50.4325L27.0185 49.6719C25.9683 49.5142 25.1619 48.6592 25.0657 47.6016C24.9578 46.4146 23.9626 45.5058 22.7707 45.5058H21.4285C19.2281 45.5058 17.4942 47.3805 17.6657 49.5742L17.8064 51.3728C17.9877 53.6918 19.6227 55.6392 21.8752 56.2193L31.251 58.6337C32.5588 58.9705 33.9307 58.9707 35.2386 58.6343L42.8872 56.6671C46.1869 55.8185 48.587 52.9732 48.8674 49.5778L49.6153 40.5229C50.0004 35.8608 46.3204 31.8644 41.6424 31.8644H29.8595C27.5842 31.8644 25.7927 29.9236 25.9745 27.6555C26.1368 25.6302 27.8277 24.0694 29.8595 24.0694H40.6049C41.7229 24.0694 42.6633 24.9075 42.7914 26.0181C42.9195 27.1288 43.8598 27.9669 44.9778 27.9669H46.2081C48.3504 27.9669 50.0135 26.0986 49.7653 23.9707L49.4705 21.4433C49.1268 18.4965 46.6303 16.2743 43.6636 16.2743H26.1187Z" fill="#F7F7F7"/>
</svg>
