<svg width="67" height="68" viewBox="0 0 67 68" fill="none" xmlns="http://www.w3.org/2000/svg">
<path d="M4.63253 0.894821C2.32577 0.894821 0.419922 2.80067 0.419922 5.10742V62.9983C0.419922 65.3051 2.32577 67.2109 4.63253 67.2109H62.5234C64.8302 67.2109 66.736 65.3113 66.736 62.9983V5.10742C66.736 2.80067 64.8364 0.894821 62.5234 0.894821H4.63253ZM4.63253 4.05273H62.5234C63.1094 4.05273 63.5781 4.52148 63.5781 5.10742V62.9983C63.5781 63.5843 63.1094 64.053 62.5234 64.053H4.63253C4.04658 64.053 3.57783 63.5843 3.57783 62.9983V5.10742C3.57783 4.52148 4.04658 4.05273 4.63253 4.05273ZM33.578 30.895C31.8339 30.895 30.4201 32.3088 30.4201 34.0529V50.7491C30.4201 53.796 29.2667 54.5793 27.2622 54.5793C26.3097 54.5793 25.4895 54.3096 24.7878 53.8562C23.3667 52.9379 21.5517 52.2998 20.1046 53.1763C18.7886 53.9735 18.2663 55.6673 19.2482 56.8518C21.0741 59.0545 23.9702 60.8951 27.6322 60.8951C33.0352 60.8951 36.7359 58.0209 36.7359 51.7113V34.0529C36.7359 32.3088 35.322 30.895 33.578 30.895ZM50.083 30.895C44.7047 30.895 41.2569 34.3366 41.2569 38.8576C41.2569 43.761 44.1496 46.0801 48.4979 47.9304L50.0028 48.578C52.7475 49.7808 54.1044 50.5147 54.1044 52.5809C54.1044 54.3017 52.7968 55.5476 50.2989 55.5476C48.5816 55.5476 47.3871 54.8747 46.436 53.8997C45.265 52.6993 43.4695 52.1955 42.0741 53.1257C40.8301 53.9551 40.3668 55.6163 41.2948 56.7886C43.1966 59.1909 46.0847 60.8951 50.4346 60.8951C56.1583 60.8951 60.4202 57.9222 60.4202 52.5008C60.4202 47.4678 57.5337 45.2289 52.4083 43.0332L50.9033 42.3917C48.319 41.2692 47.1965 40.5414 47.1965 38.7342C47.1965 37.2725 48.319 36.1499 50.083 36.1499C50.8211 36.1499 51.4461 36.283 52.0002 36.5788C53.4112 37.3319 55.0944 38.0044 56.4408 37.1411C57.6801 36.3463 58.1229 34.6758 57.1165 33.6012C55.3108 31.6732 53.0103 30.895 50.083 30.895Z" fill="#F7F7F7"/>
</svg>
