<svg width="68" height="62" viewBox="0 0 68 62" fill="none" xmlns="http://www.w3.org/2000/svg">
<path fill-rule="evenodd" clip-rule="evenodd" d="M47.7108 0.0579774C46.5685 0.0193569 45.3728 0.219605 44.174 0.610397C41.7764 1.39198 39.264 2.91511 36.6856 5.024C36.6611 5.04406 36.6366 5.06419 36.612 5.08438C34.8822 6.50839 32.3794 6.51159 30.6451 5.09306C28.0688 2.98585 25.5632 1.46214 23.171 0.682327C20.7789 -0.0974903 18.3987 -0.121654 16.4438 1.0132C14.4889 2.14806 13.3199 4.2313 12.7955 6.70428C12.271 9.17726 12.3288 12.1223 12.8555 15.4193C12.869 15.5038 12.883 15.5886 12.8973 15.6737C13.2134 17.5502 12.1602 19.3876 10.389 20.0832C7.35324 21.2754 4.84135 22.7017 3.01219 24.399C1.18303 26.0962 0.00195312 28.1562 0.00195312 30.4181C0.00195312 32.68 1.18303 34.737 3.01219 36.4343C4.84135 38.1315 7.35324 39.5607 10.389 40.7529C12.2737 41.4931 13.3937 43.4668 13.013 45.4556C12.9384 45.8456 12.8705 46.2309 12.8098 46.6109C12.2826 49.9105 12.2269 52.8559 12.7525 55.3345C13.2782 57.8131 14.4478 59.9081 16.4123 61.0486C18.3769 62.1891 20.7677 62.1611 23.1653 61.3795C25.5629 60.5979 28.0725 59.0776 30.6508 56.9687C32.4091 55.5306 34.9617 55.545 36.72 56.9831C39.2963 59.0903 41.8047 60.6112 44.1969 61.391C46.5891 62.1708 48.9693 62.195 50.9242 61.0601C52.879 59.9252 54.0452 57.842 54.5696 55.369C55.0941 52.896 55.0363 49.9539 54.5095 46.6569C54.4539 46.3084 54.3922 45.9555 54.3248 45.5984C53.9381 43.5482 55.0942 41.5156 57.0362 40.7529C60.0719 39.5607 62.5838 38.1315 64.413 36.4343C66.2421 34.737 67.4232 32.68 67.4232 30.4181C67.4232 28.1562 66.2421 26.0962 64.413 24.399C62.5838 22.7017 60.0719 21.2754 57.0362 20.0832C55.2393 19.3775 54.1725 17.5142 54.4921 15.6103C54.505 15.5339 54.5174 15.4578 54.5296 15.3819C55.0568 12.0822 55.1124 9.13396 54.5868 6.65537C54.0612 4.17677 52.8887 2.08462 50.9242 0.944151C49.9419 0.373918 48.853 0.0965979 47.7108 0.0579774ZM47.5763 3.05601C48.2931 3.07572 48.9046 3.24723 49.4276 3.55088C50.4738 4.15819 51.247 5.34017 51.6595 7.28547C52.0721 9.23077 52.0578 11.8591 51.5708 14.9071C51.2785 16.7368 49.4286 17.8292 47.6065 17.493C46.3873 17.2681 45.1299 17.0723 43.8382 16.9075C42.1073 16.6867 40.5324 15.7873 39.466 14.4063C39.0615 13.8826 38.6551 13.3706 38.2472 12.8708C36.8881 11.2055 36.9133 8.72399 38.577 7.36316C40.9588 5.41506 43.2137 4.0895 45.0954 3.47608C46.0363 3.16937 46.8595 3.0363 47.5763 3.05601ZM19.7745 3.06464C20.4955 3.0444 21.3204 3.17711 22.264 3.48471C24.1511 4.0999 26.4099 5.42488 28.7938 7.37467C30.4219 8.70635 30.4473 11.137 29.1155 12.765C28.6795 13.2979 28.2453 13.8447 27.8134 14.4048C26.7409 15.7958 25.1571 16.7034 23.4153 16.9296C22.1379 17.0954 20.8944 17.2916 19.6886 17.5163C17.8779 17.8538 16.0362 16.7691 15.7456 14.9503C15.2582 11.8996 15.246 9.27091 15.6598 7.32C16.0735 5.36908 16.8531 4.17819 17.9088 3.56527C18.4367 3.25881 19.0536 3.08488 19.7745 3.06464ZM32.4314 13.4858C33.0893 12.7183 34.2673 12.7182 34.9255 13.4854C34.9581 13.5233 34.9906 13.5613 35.0231 13.5995C35.9331 14.6653 35.114 16.2709 33.7126 16.2709C32.2846 16.2709 31.4491 14.6346 32.3771 13.5492C32.3952 13.5281 32.4133 13.5069 32.4314 13.4858ZM33.7126 19.2459C34.3868 19.2459 35.0553 19.2554 35.7179 19.2732C38.1348 19.3384 40.3554 20.6105 41.6414 22.6578C42.2099 23.5627 42.7688 24.4912 43.3156 25.4434C43.7197 26.1473 44.1093 26.8507 44.485 27.5526C45.6285 29.6887 45.6293 32.2526 44.4862 34.3889C44.0974 35.1154 43.694 35.8436 43.2755 36.5724C42.9884 37.0724 42.6975 37.5648 42.4034 38.0503C41.1391 40.1378 38.9115 41.4523 36.4725 41.5385C35.5635 41.5706 34.6431 41.5873 33.7126 41.5873C32.7282 41.5873 31.7555 41.5684 30.7956 41.5323C28.3596 41.4407 26.1368 40.1243 24.8763 38.0378C24.5967 37.5749 24.3199 37.1059 24.0466 36.6299C23.6295 35.9035 23.2278 35.1775 22.8406 34.4531C21.7002 32.3193 21.6995 29.7594 22.8387 27.625C23.2308 26.8905 23.6379 26.1542 24.0609 25.4175C24.602 24.4752 25.1557 23.5565 25.7188 22.6609C27.0048 20.6154 29.2233 19.343 31.6386 19.2753C32.3237 19.2561 33.0151 19.2459 33.7126 19.2459ZM45.7379 23.7695C44.8219 22.1871 46.1705 20.2328 47.9629 20.5938C49.1714 20.8373 49.801 22.0609 49.4012 23.2271C49.341 23.4028 49.2797 23.5791 49.2174 23.756C48.6873 25.2607 46.6481 25.3538 45.8537 23.9703C45.8152 23.9032 45.7766 23.8363 45.7379 23.7695ZM19.33 20.6205C21.1112 20.259 22.4581 22.2028 21.5496 23.7768C21.5235 23.8221 21.4974 23.8674 21.4713 23.9127C20.6672 25.3133 18.5983 25.2164 18.064 23.6923C18.0103 23.5391 17.9574 23.3862 17.9052 23.2338C17.5093 22.0771 18.1318 20.8637 19.33 20.6205ZM52.0226 24.8192C52.6005 23.1923 54.3533 22.2228 55.9603 22.8539C58.7588 23.953 60.9724 25.2544 62.4071 26.5856C63.8418 27.9169 64.4645 29.1865 64.4645 30.4181C64.4645 31.6497 63.8418 32.9192 62.4071 34.2505C60.9724 35.5817 58.7588 36.8831 55.9603 37.9822C54.1508 38.6928 52.1789 37.6122 51.486 35.7959C51.2059 35.0616 50.9094 34.3207 50.5969 33.5742C49.9185 31.9533 49.9193 30.126 50.5968 28.5047C51.1175 27.2589 51.593 26.0288 52.0226 24.8192ZM11.4649 22.8539C13.0451 22.2333 14.7694 23.1857 15.3359 24.7861C15.7579 25.9784 16.2246 27.1908 16.7353 28.4187C17.4118 30.0456 17.4109 31.8775 16.7305 33.5028C16.397 34.2993 16.0816 35.0895 15.785 35.8721C15.1193 37.6281 13.2129 38.6687 11.4649 37.9822C8.6664 36.8831 6.45277 35.5817 5.01806 34.2505C3.58335 32.9192 2.96068 31.6497 2.96068 30.4181C2.96068 29.1865 3.58335 27.9169 5.01806 26.5856C6.45277 25.2544 8.6664 23.953 11.4649 22.8539ZM33.7126 23.6509C29.6843 23.6509 26.3873 26.9661 26.3873 31.0165C26.3873 35.067 29.6843 38.3821 33.7126 38.3821C37.7409 38.3821 41.0379 35.067 41.0379 31.0165C41.0379 26.9661 37.7409 23.6509 33.7126 23.6509ZM18.1718 38.0717C18.6762 36.6639 20.6138 36.5244 21.3524 37.8246C21.4051 37.9174 21.4581 38.0102 21.5114 38.103C22.1472 39.2103 21.2453 40.5796 19.9909 40.3413C19.8071 40.3064 19.6243 40.2708 19.4426 40.2345C18.432 40.0329 17.8243 39.0418 18.1718 38.0717ZM46.0106 37.8276C46.7516 36.5251 48.6932 36.6653 49.1988 38.0759C49.5478 39.0495 48.9375 40.0445 47.923 40.2457C47.7518 40.2797 47.5798 40.313 47.4068 40.3458C46.1356 40.5866 45.2237 39.1992 45.868 38.0771C45.9158 37.9939 45.9633 37.9108 46.0106 37.8276ZM15.7656 47.0885C16.1613 44.6122 18.6692 43.1661 21.1441 43.5702C21.5986 43.6443 22.058 43.7146 22.5221 43.7808C24.2802 44.0314 25.8686 44.9735 26.9262 46.4C27.6397 47.3624 28.361 48.2882 29.0872 49.176C30.4354 50.8243 30.4106 53.2843 28.7623 54.6325C26.3805 56.5806 24.1228 57.9033 22.2411 58.5167C20.3593 59.1301 18.955 59.0492 17.9088 58.4419C16.8627 57.8346 16.0923 56.6526 15.6798 54.7073C15.2673 52.762 15.2787 50.1366 15.7656 47.0885ZM46.2081 43.5811C48.6976 43.1781 51.2188 44.6327 51.6166 47.123C52.104 50.1737 52.1162 52.8024 51.7025 54.7533C51.2887 56.7042 50.5149 57.898 49.4591 58.5109C48.4033 59.1238 46.9854 59.2038 45.0983 58.5886C43.2111 57.9734 40.9523 56.6484 38.5685 54.6986C36.9083 53.3408 36.886 50.8623 38.2454 49.2034C38.9762 48.3116 39.702 47.3814 40.4199 46.4142C41.4824 44.9826 43.0778 44.0378 44.843 43.788C45.3027 43.723 45.7578 43.654 46.2081 43.5811ZM31.9621 48.0328C30.7821 46.6319 31.881 44.5623 33.7126 44.5623C35.4858 44.5623 36.5469 46.5666 35.4054 47.9236C35.3506 47.9887 35.2958 48.0537 35.2409 48.1183C34.3971 49.1138 32.8748 49.1127 32.0324 48.116C32.0089 48.0883 31.9855 48.0606 31.9621 48.0328Z" fill="#F7F7F7"/>
</svg>
