<svg width="68" height="51" viewBox="0 0 68 51" fill="none" xmlns="http://www.w3.org/2000/svg">
<path d="M57.861 29.2198C56.8719 29.2249 55.9391 29.3294 55.0638 29.512C53.2194 29.8969 50.753 29.3722 50.5095 27.5038C50.3875 26.5656 50.2456 26.0055 50.3928 24.8868C50.54 23.7681 51.1873 22.1849 51.1767 22.0667C51.1674 21.9486 51.0321 21.3793 49.6952 21.3687C48.3583 21.3594 47.2151 21.6261 47.0798 21.9792C46.9445 22.3322 46.6872 23.1271 46.5281 23.9565C46.3552 24.85 44.9891 27.4327 43.7287 29.6356C43.1926 30.5725 41.6982 30.5517 41.5599 29.4812C41.4379 28.5429 41.296 27.9829 41.4432 26.8642C41.5904 25.7454 42.2376 24.1622 42.227 24.0441C42.2177 23.926 42.0824 23.3567 40.7456 23.3461C39.4087 23.3368 38.2654 23.6035 38.1302 23.9565C37.9949 24.3095 37.8517 25.135 37.5784 25.9339C37.3039 26.7328 34.0678 33.9482 33.2203 35.8181C32.7881 36.7705 32.4129 37.536 32.1477 38.0589C32.1475 38.0592 32.1468 38.0589 32.1467 38.0586C32.1464 38.0581 32.1453 38.0585 32.1451 38.059C32.1412 38.0672 32.126 38.0999 32.101 38.1511C31.8906 38.5634 31.759 38.8057 31.741 38.8386C31.7396 38.8412 31.7386 38.842 31.7397 38.8447C31.741 38.8479 31.7419 38.8536 31.7402 38.8566C31.5606 39.1813 31.3697 39.4822 31.2747 39.4822C31.2084 39.4822 31.0744 38.6116 31.3039 37.4185C31.7853 34.9156 32.9418 31.0113 32.9312 30.8773C32.9259 30.8083 33.1461 30.1288 32.1752 29.7718C31.2323 29.4268 30.8954 30.0027 30.8092 30.0041C30.7983 30.0042 30.7127 29.9635 30.7147 29.9528C30.8831 29.0166 31.2678 25.8171 28.658 25.8171C27.2369 25.8171 25.4074 26.9752 24.0265 28.3487C23.1369 29.2334 22.222 30.1164 21.1213 30.7186C20.3108 31.162 19.3425 31.6925 18.3436 32.2416C17.6897 32.6007 17.0238 32.9676 16.3848 33.3201C16.2757 33.3803 16.1415 33.3565 16.0558 33.2661C12.3502 29.31 5.50137 26.5125 5.79182 21.1948C5.89792 19.2613 6.56901 14.1705 18.9537 7.99559C29.0983 2.93671 37.2204 4.32883 38.6235 7.41432C40.6289 11.8216 34.2827 20.0137 23.7481 21.1948C19.7335 21.6447 17.6208 20.088 17.0943 19.5081C16.5412 18.8976 16.459 18.8698 16.2521 18.9852C15.9152 19.1724 16.1287 19.7111 16.2521 20.0323C16.5664 20.8511 17.8569 22.3043 20.0585 23.0262C21.9948 23.6619 26.707 24.0109 32.4073 21.8053C38.7907 19.3343 43.7748 12.4612 42.3119 6.71627C40.8225 0.873086 31.1407 -1.04722 21.9776 2.20947C16.524 4.14835 10.6208 7.19137 6.37538 11.1634C1.32761 15.8878 0.523888 19.9991 0.855455 21.7164C1.98978 27.5894 9.8143 31.491 13.4048 34.402C13.6051 34.5644 13.5707 34.8733 13.3449 34.9979C11.6566 35.834 5.24805 39.1902 3.64459 42.7362C1.82628 46.7586 3.93372 49.645 5.33028 50.0339C9.65391 51.2375 14.0916 49.0717 16.4762 45.5125C18.8608 41.9545 18.5691 37.3217 17.4749 35.2063C17.4525 35.1614 17.4659 35.1081 17.5091 35.0826C17.9207 34.8386 18.3388 34.5926 18.7534 34.349C19.5923 33.8568 20.6643 34.7223 20.5168 35.6837C20.4379 36.1977 20.3727 36.7612 20.3224 37.3867C20.1394 39.6706 21.0744 42.6221 22.2985 43.7833C22.837 44.2942 23.4855 44.3061 23.8967 44.3061C25.3211 44.3061 25.971 43.121 26.6858 41.7183C26.9021 41.2947 28.2727 41.5867 28.4189 42.0393C28.6719 42.8223 29.1538 43.405 30.028 43.405C30.9958 43.405 31.9701 42.1502 32.4063 41.5081C32.4072 41.5068 32.4095 41.5097 32.4097 41.5113C32.4099 41.5131 32.4124 41.5114 32.4133 41.5098C32.4216 41.4961 32.4455 41.4563 32.4843 41.3892C32.5658 41.2647 32.6186 41.1767 32.6359 41.1475C32.64 41.1406 32.6417 41.1394 32.6433 41.1315C32.6456 41.121 32.6499 41.1049 32.6552 41.0956C33.0488 40.4118 33.9106 38.8707 35.1991 36.3396C36.0228 34.7212 36.8302 32.902 37.438 31.4707C37.731 30.7809 38.9096 30.8816 39.1209 31.6006C39.3665 32.4374 39.8487 33.3497 40.2848 34.2449C40.4226 34.5278 40.3909 34.8633 40.2044 35.1167C40.0225 35.3638 39.9081 35.5134 39.8824 35.5468C39.879 35.5513 39.8767 35.5533 39.8789 35.5585C39.8809 35.5631 39.8817 35.5723 39.8787 35.5763C39.5695 35.9872 39.2225 36.4295 38.8596 36.8625C37.5373 38.4391 35.9617 40.2386 35.7509 40.7588C35.5028 41.3706 35.5612 41.8218 36.0413 42.1828C36.3914 42.4469 37.0161 42.488 37.6686 42.4442C38.857 42.3646 39.6938 42.0687 40.1063 41.8895C40.7495 41.6626 41.4989 41.3043 42.2018 40.7867C43.4989 39.8325 44.2814 38.4669 44.2071 36.6581C44.1744 35.8651 43.9662 35.0779 43.68 34.3193C43.5431 33.9563 43.582 33.5486 43.8 33.2276C44.7075 31.8996 45.5247 30.5136 46.1529 29.3826C46.5578 28.6538 47.8355 28.822 48.0705 29.6219C48.5523 31.2616 48.2591 33.0173 47.193 34.353C46.4501 35.2839 45.9549 36.175 45.7164 36.8598C44.9512 39.0641 45.5506 40.0634 46.6753 40.2904C47.1846 40.3939 47.9048 40.1603 48.4459 39.9307C49.1196 39.7078 49.9286 39.3349 50.6846 38.7788C51.9817 37.8246 53.2297 36.4882 53.1541 34.6794C53.0958 33.2885 53.6213 31.8005 54.9945 31.5714C56.1642 31.3763 57.5017 31.3322 59.0242 31.5103C64.7921 32.1845 65.9234 35.7875 65.7072 37.2951C65.491 38.804 64.2815 39.6321 63.877 39.8829C63.4725 40.1338 63.3491 40.22 63.3836 40.4058C63.4327 40.6765 63.6197 40.6659 63.9645 40.6075C64.4393 40.5279 66.9924 39.3813 67.1025 36.5971C67.2404 33.0697 63.8558 29.1879 57.861 29.2198ZM13.4072 44.2159C11.4974 46.3008 8.82764 47.089 7.68307 46.4255C6.44699 45.7089 6.93639 42.638 9.28123 40.4257C10.7096 39.0774 12.5545 37.8352 13.7786 37.0695C14.0571 36.9023 14.4656 36.6555 14.963 36.3569C15.0372 36.3149 15.0823 36.2892 15.0903 36.2846C15.091 36.2842 15.0913 36.2833 15.0909 36.2825C15.0906 36.2818 15.0908 36.2809 15.0915 36.2805C15.1311 36.2568 15.1713 36.2328 15.212 36.2083C15.2992 36.1559 15.4127 36.2018 15.4373 36.3005C16.2037 39.3697 15.3706 42.0733 13.4072 44.2159ZM27.3238 34.7484C26.658 36.3715 25.2654 40.5239 24.4179 40.301C23.6898 40.1099 23.2468 36.9527 24.272 33.8473C24.7879 32.284 25.8901 30.4155 26.5386 29.6896C27.581 28.523 28.7296 28.1408 29.0081 28.6146C29.3649 29.2171 27.7415 33.7305 27.3238 34.7484ZM38.8225 40.2386C38.54 40.3859 38.2814 40.4788 38.162 40.4071C38.1506 40.4003 38.1441 40.3912 38.1413 40.3805C38.0968 40.2081 38.3393 40.0951 38.4599 39.9642C38.8644 39.525 39.8402 38.4579 40.284 37.9069C40.5868 37.5294 40.9356 37.0868 41.3129 36.5944C41.3473 36.5496 41.4167 36.571 41.4167 36.6276C41.4114 38.4829 39.6209 39.7343 38.8225 40.2386ZM49.573 36.9766C48.6525 38.077 47.5988 37.3797 48.1965 36.0755C48.3918 35.6504 48.7663 35.0158 49.3614 34.3389C49.7158 33.9358 50.369 34.1135 50.365 34.6502C50.3585 35.6858 50.0273 36.4336 49.573 36.9766Z" fill="#F7F7F7"/>
</svg>
