<svg width="60" height="45" viewBox="0 0 60 45" fill="none" xmlns="http://www.w3.org/2000/svg">
<path fill-rule="evenodd" clip-rule="evenodd" d="M29.9749 0.00062561C25.8684 0.00062561 22.4022 0.850759 19.5764 2.55102C16.7297 4.26388 21.1944 8.41037 24.4186 9.21193C27.2389 9.91168 29.2397 11.9446 31.4816 14.1946C35.0974 17.8622 39.3159 22.1029 48.4882 22.1029C52.5935 22.1029 56.0587 21.2533 58.8841 19.5541C61.7263 17.8447 57.2628 13.6937 54.0446 12.8916C51.2242 12.1919 49.2234 10.159 46.9816 7.90896C43.3536 4.22323 39.1532 0.00062561 29.9749 0.00062561ZM11.4617 22.0969C11.4617 22.1002 11.4589 22.1029 11.4556 22.1029C7.35139 22.1038 3.88702 22.9541 1.06249 24.6538C-1.78703 26.3685 2.67806 30.5113 5.90534 31.3142C8.72571 32.014 10.7265 34.0469 12.9683 36.3029C16.5842 39.9646 20.8027 44.2113 29.9749 44.2113C34.082 44.2113 37.5485 43.361 40.3744 41.6603C43.2178 39.9492 38.7507 35.7929 35.5313 34.9879C32.711 34.2882 30.7102 32.2553 28.4683 30.0052C24.8533 26.3384 20.6358 22.0928 11.4678 22.0909C11.4645 22.0909 11.4617 22.0936 11.4617 22.0969Z" fill="#F7F7F7"/>
</svg>
