<svg width="67" height="68" viewBox="0 0 67 68" fill="none" xmlns="http://www.w3.org/2000/svg">
<path d="M33.578 0.737434C15.2935 0.737434 0.419922 15.6124 0.419922 33.8955C0.419922 52.1786 15.2935 67.0536 33.578 67.0536C51.8625 67.0536 66.736 52.1786 66.736 33.8955C66.736 15.6124 51.8625 0.737434 33.578 0.737434ZM33.578 7.94571C37.9294 7.94571 42.0247 9.02047 45.6222 10.9136C47.8093 12.0646 47.562 15.4216 47.562 17.8931C47.562 20.1998 48.8595 22.2181 50.3012 24.5247C51.4545 26.3989 52.6078 28.8497 52.6078 32.3097C52.6078 34.7605 51.887 37.788 50.4453 41.5363C49.5495 44.4925 45.3857 44.5528 44.4047 41.6236L38.3795 23.633C37.8435 22.0324 40.6421 20.1998 40.6421 20.1998C42.0837 20.0556 41.9396 17.8931 40.4979 17.8931H40.3538C40.3538 17.8931 35.7405 18.3256 32.713 18.3256C30.2532 18.3256 26.1659 17.9769 25.3577 17.9057C25.262 17.8973 25.1683 17.8931 25.0722 17.8931C23.7093 17.8931 23.506 19.9546 24.7059 20.1799C24.8517 20.2072 24.8031 20.1873 24.9507 20.202C26.664 20.3727 28.3353 21.5171 28.9314 23.1324L31.7106 30.6631C32.1728 31.9156 32.1946 33.2881 31.7725 34.5546C29.9899 39.9022 22.4295 39.9128 20.632 34.5702L16.9032 23.4874C16.3653 21.8884 19.1614 20.0556 19.1614 20.0556C20.6031 19.9114 20.4589 17.749 19.0173 17.749H18.8731C18.8731 17.749 18.8293 17.7531 18.7476 17.7605C16.4565 17.9681 15.206 15.4568 16.9699 13.9801C21.465 10.2167 27.2491 7.94571 33.578 7.94571ZM7.6282 33.8955C7.6282 31.4748 10.4975 31.2678 11.3305 33.5406L14.0753 41.0296C15.787 45.6999 11.5291 48.4544 9.61431 43.8636C8.33497 40.7964 7.6282 37.4299 7.6282 33.8955ZM32.1431 59.8062C28.6708 59.6164 26.8345 55.9689 27.9573 52.6776C29.8326 47.1807 37.5765 47.0837 39.5798 52.5353C40.7802 55.802 39.0252 59.499 35.5554 59.7686C34.903 59.8192 34.2436 59.8453 33.578 59.8453C33.0965 59.8453 32.6181 59.8321 32.1431 59.8062ZM59.4836 35.4211C59.057 42.7755 53.6651 39.9944 56.0678 33.0305C56.7718 31.2391 59.4597 31.223 59.5167 33.1469C59.524 33.3955 59.5278 33.645 59.5278 33.8955C59.5278 34.4077 59.5129 34.9164 59.4836 35.4211Z" fill="#F7F7F7"/>
</svg>
